<?xml version="1.0" standalone="no"?>
<!DOCTYPE svg PUBLIC "-//W3C//DTD SVG 20010904//EN"
 "http://www.w3.org/TR/2001/REC-SVG-20010904/DTD/svg10.dtd">
<svg version="1.0" xmlns="http://www.w3.org/2000/svg"
 width="512.000000pt" height="512.000000pt" viewBox="0 0 512.000000 512.000000"
 preserveAspectRatio="xMidYMid meet">

<g transform="translate(0.000000,512.000000) scale(0.100000,-0.100000)"
fill="#000000" stroke="none">
<path d="M2348 5109 c-998 -82 -1871 -760 -2203 -1710 -323 -925 -87 -1948
609 -2645 1002 -1002 2610 -1002 3612 0 696 697 932 1720 609 2645 -383 1098
-1470 1806 -2627 1710z m427 -479 c482 -53 916 -261 1255 -600 814 -813 814
-2127 0 -2940 -813 -814 -2127 -814 -2940 0 -814 813 -814 2127 0 2940 334
334 773 546 1240 599 107 12 339 13 445 1z"/>
<path d="M2420 3990 c-339 -33 -634 -173 -876 -414 -433 -433 -542 -1074 -280
-1641 126 -274 397 -545 671 -671 424 -196 887 -186 1285 27 113 61 231 142
225 156 -2 7 -65 94 -140 193 -89 119 -140 178 -148 173 -7 -4 -33 -22 -58
-40 -65 -46 -219 -118 -309 -143 -220 -62 -504 -24 -720 97 -115 65 -276 224
-339 337 -174 308 -174 684 0 992 63 113 224 272 339 337 101 56 232 100 349
118 109 15 282 6 386 -20 125 -32 269 -108 354 -187 l73 -67 175 175 175 175
-76 64 c-298 249 -705 376 -1086 339z"/>
</g>
</svg>
