<?xml version="1.0" standalone="no"?>
<!DOCTYPE svg PUBLIC "-//W3C//DTD SVG 20010904//EN"
 "http://www.w3.org/TR/2001/REC-SVG-20010904/DTD/svg10.dtd">
<svg version="1.0" xmlns="http://www.w3.org/2000/svg"
 width="256.000000pt" height="256.000000pt" viewBox="0 0 256.000000 256.000000"
 preserveAspectRatio="xMidYMid meet">

<g transform="translate(0.000000,256.000000) scale(0.100000,-0.100000)"
fill="#000000" stroke="none">
<path d="M1135 2534 c-216 -33 -387 -96 -545 -200 -282 -185 -473 -467 -546
-804 -26 -119 -26 -381 0 -500 108 -498 472 -866 971 -983 124 -29 390 -30
515 -3 443 96 791 399 938 816 54 153 67 237 66 425 0 136 -4 188 -21 260
-101 433 -399 774 -803 920 -134 48 -234 66 -395 70 -82 2 -163 1 -180 -1z
m586 -712 c24 -11 59 -32 77 -47 31 -26 35 -27 78 -16 25 7 68 23 97 36 28 14
52 25 54 25 14 0 -54 -104 -87 -134 l-41 -37 38 7 c21 4 56 13 77 21 22 7 41
11 44 9 7 -8 -56 -82 -97 -115 l-38 -30 -12 -116 c-31 -311 -188 -566 -443
-717 -248 -147 -599 -156 -861 -21 l-72 38 100 6 c110 7 198 32 282 80 58 33
71 47 51 53 -121 34 -133 39 -188 95 -31 31 -61 71 -68 89 l-11 32 60 0 c32 0
59 3 59 8 0 4 -21 16 -48 26 -92 38 -182 165 -182 256 0 35 -2 34 43 15 20 -8
48 -15 62 -15 25 0 24 1 -13 38 -62 62 -86 123 -87 217 0 57 5 92 18 121 l18
40 72 -71 c83 -81 196 -155 300 -195 75 -29 206 -60 254 -60 l28 0 1 78 c0 60
5 88 24 127 74 152 257 223 411 157z"/>
</g>
</svg>
