<?xml version="1.0" standalone="no"?>
<!DOCTYPE svg PUBLIC "-//W3C//DTD SVG 20010904//EN"
 "http://www.w3.org/TR/2001/REC-SVG-20010904/DTD/svg10.dtd">
<svg version="1.0" xmlns="http://www.w3.org/2000/svg"
 width="512.000000pt" height="512.000000pt" viewBox="0 0 512.000000 512.000000"
 preserveAspectRatio="xMidYMid meet">

<g transform="translate(0.000000,512.000000) scale(0.100000,-0.100000)"
fill="#000000" stroke="none">
<path d="M2365 4944 c-180 -28 -367 -101 -522 -205 -99 -66 -275 -242 -340
-339 -293 -438 -296 -984 -7 -1427 74 -115 242 -283 357 -357 341 -222 735
-273 1119 -146 188 63 336 156 489 309 149 149 247 303 309 489 127 384 76
778 -146 1119 -74 115 -242 283 -357 357 -273 178 -591 248 -902 200z m358
-319 c117 -20 238 -66 338 -127 111 -68 249 -206 317 -317 233 -382 171 -877
-150 -1187 -268 -260 -649 -341 -1001 -214 -250 91 -476 317 -567 567 -130
360 -40 757 232 1019 224 217 528 312 831 259z"/>
<path d="M3455 2240 c-95 -29 -139 -167 -79 -247 11 -13 190 -127 399 -253
l380 -228 3 -299 c1 -187 -2 -318 -9 -351 -36 -174 -178 -321 -356 -367 -86
-22 -2380 -22 -2466 0 -178 46 -320 193 -356 367 -7 33 -10 164 -9 352 l3 298
354 213 c194 118 362 222 373 232 31 28 48 68 48 115 0 94 -72 162 -165 155
-45 -3 -93 -30 -465 -255 -273 -165 -424 -262 -440 -283 l-25 -32 -3 -366 c-2
-237 1 -394 8 -445 49 -338 312 -611 650 -672 99 -18 2389 -21 2503 -3 334 52
602 315 663 649 9 54 13 177 14 440 0 360 0 366 -22 410 -22 43 -42 56 -459
307 -451 271 -476 284 -544 263z"/>
</g>
</svg>
