<?xml version="1.0" standalone="no"?>
<!DOCTYPE svg PUBLIC "-//W3C//DTD SVG 20010904//EN"
 "http://www.w3.org/TR/2001/REC-SVG-20010904/DTD/svg10.dtd">
<svg version="1.0" xmlns="http://www.w3.org/2000/svg"
 width="512.000000pt" height="512.000000pt" viewBox="0 0 512.000000 512.000000"
 preserveAspectRatio="xMidYMid meet">

<g transform="translate(0.000000,512.000000) scale(0.100000,-0.100000)"
fill="#000000" stroke="none">
<path d="M2315 5109 c-800 -83 -1501 -518 -1927 -1196 -604 -961 -490 -2237
274 -3068 425 -462 951 -737 1583 -827 119 -17 512 -16 635 1 622 86 1148 360
1572 820 349 378 572 862 650 1406 17 118 17 512 0 630 -59 416 -191 769 -410
1099 -92 140 -185 254 -315 385 -399 404 -893 653 -1462 737 -123 18 -478 26
-600 13z m800 -1194 c263 -10 434 -76 579 -221 108 -107 167 -222 203 -389 33
-159 33 -1329 -1 -1491 -34 -164 -103 -294 -211 -399 -102 -98 -220 -158 -380
-191 -161 -34 -1328 -34 -1491 0 -164 34 -294 103 -399 211 -98 102 -158 220
-191 380 -35 163 -35 1336 -1 1491 37 164 94 277 192 379 106 110 235 177 404
212 120 25 870 36 1296 18z"/>
<path d="M1990 3670 c-122 -9 -181 -22 -268 -61 -118 -53 -217 -180 -251 -323
-22 -89 -30 -296 -31 -716 0 -496 10 -667 44 -774 54 -172 163 -274 343 -321
91 -24 315 -35 733 -35 676 1 806 20 943 140 105 92 152 216 167 433 13 185
13 923 0 1098 -28 382 -177 531 -558 559 -154 11 -961 11 -1122 0z m1381 -243
c79 -53 101 -142 56 -221 -58 -101 -216 -103 -277 -4 -26 43 -26 121 -1 168
39 75 153 104 222 57z m-598 -200 c214 -69 383 -238 455 -454 22 -67 26 -96
26 -208 1 -109 -3 -142 -22 -205 -70 -223 -231 -388 -457 -466 -72 -26 -93
-28 -215 -28 -122 0 -143 2 -215 28 -222 77 -374 229 -451 451 -26 72 -28 93
-28 215 0 122 2 143 27 215 85 245 270 412 522 471 92 21 261 12 358 -19z"/>
<path d="M2404 2986 c-280 -104 -386 -455 -210 -693 89 -121 213 -183 366
-183 258 0 450 192 450 450 0 197 -113 360 -297 427 -89 32 -222 32 -309 -1z"/>
</g>
</svg>
